<svg id="Layer_1" data-name="Layer 1" xmlns="http://www.w3.org/2000/svg" viewBox="0 0 477.05 563.63"><defs><style>.cls-1{fill-rule:evenodd;}</style></defs><title>brain</title><path class="cls-1" d="M295.72,149.86c15.25-10.12,33-13.57,53.77-9,13.15,5.37,27,8.53,37.23,22.74,29.41,5,46,28.53,64.8,49,25.92,26.1,30,46.55,31,66.18,16.13,19.2,37.71,30.52,43.61,55.49,3.05,12.48-3.17,23.1-5,30.69q6.89,5.51,11,20c6.1,29.77,3.67,56.22,1.38,82.72-8.87,51.7-30.64,91.52-56.53,127.54A64.33,64.33,0,0,1,477,620c-31.87,34-70.85,59.32-119.27,73.07-29.68,4.69-45.71-6.46-57.91-22.06-24,25.75-59.78,21.56-97.2,13.1C140.58,644,92.35,599.27,77.18,543.5q-2.07-22.07-4.13-44.12c-21.67-37.55-15.82-76.43.69-115.82-3.13-21.53-6.72-43.07,20-62.74,6.13-17.23,12-34.51,33.09-48.94q4.13-60.69,56.53-88.24c18.2-26,41.54-44.54,71.69-53.09,17.5-.31,29.64,8.55,40.68,19.31Zm230.63,239.3c-.21-1.15-.43-2.3-.67-3.46q-4-14.08-10.73-19.44c1.79-7.38,7.83-17.71,4.86-29.84-5.73-24.28-26.71-35.28-42.39-53.95-1-19.09-5-39-30.17-64.35-18.25-19.86-34.41-42.77-63-47.59-9.92-13.81-23.42-16.89-36.2-22.12-16.28-3.61-30.66-2.13-43.39,3.74-2.72,34.83-3.42,69.66,1.89,104.49,12.42-.86,24.83-.74,37.24,2.08,7.06-3,9.42-12.47,11.38-22.45.31,10.52.65,21.06-1.38,29.7,3.58,3,5.06,7.79,5.87,13.12-17.75-13.11-36.86-15.55-56.9-10.71q.18,8.46.35,16.92c2.64-2.19,5.28-2,7.93-1.38a44.53,44.53,0,0,0-7.59,14.16A278.15,278.15,0,0,0,304.83,363a388.08,388.08,0,0,0,43.45-5.18c-13.09,6-26.91,11.26-42.76,14.5-3.63,21.44-1.55,41.74,1.72,61.8a21.22,21.22,0,0,0,12.07-5.87,132.12,132.12,0,0,1-11.72,29l9-4.83C309,466.8,307.81,482.21,309,498c19.31,12.35,35.51,25.52,47.93,39.71-12.73-6.12-25.66-10.92-39.31-11.05q-5.68,20.37-11.38,40.74A87.55,87.55,0,0,1,330,599.49c-8.65-6.81-18.13-10.91-28.62-11.74,13.37,20.53,29.51,35.76,47.93,46.61-15.11-4.68-30.18-9.88-44.82-21.06a106.61,106.61,0,0,1,12.41,36.94c-4.55-12.07-9.94-22.86-16.9-31.41-8.94,7.21-10.64,19.11-11.72,31.41-2.41-16.45-3-32.91,5.17-49.37-8.27,1.59-16.05-.58-23.79-3.45,21.88,1.55,24.86-22.13,27.24-46.61-21.29-3.08-35.49-15.45-44.83-34.18,13.4,15.22,28.11,24.48,45.17,23.13q.52-25.2,1-50.41c-23-6.21-49.91-4.35-69-18.64.22-23.2-15.46-48.21-25.86-52.48-21.32-1.78-25.24,30.08-34.49,44.19-13.36-24.14-30.25-35.58-46.2-50.41,15.56,10.07,32.21,15.76,45.52,34.87,3-8.34,11.09-39.69,36.89-42.12,28.31,14.49,32,49.17,31.38,57,19.21,14.44,38.39,5.76,61.37,12.78q.52-8.64,1-17.27c-6.87-4.35-15.74-3.22-24.48-2.41,10.24-4.94,19.56-11,22.41-25.21q.18-20.19.34-40.4A57.57,57.57,0,0,0,279,377.14c5.32.44,10.55.5,15.17-2.07,1.79-22,1.89-44-1.38-65.95-8.18-6.82-16.1-14.3-25.86-15.19-11-1-18.4,1.8-27.24,5.87,7.67-7.15,11.56-17.28,27.59-19.33,11-1.41,19.3,8.83,27.58,17.61,2.88-48.21,1.94-97.06-5.76-147-9-7.5-19.3-12.92-32.85-12.68A119.4,119.4,0,0,0,204,169.1l11.21.19c10.38-14,26.64-20.21,49-19-17.15,3.56-32.33,8-33.79,19,37.13,2,36.5,24.48,23.79,30,15.43-19.87-34.88-23.78-39.65,6.21-4.87-20.35-13.91-26.52-28-15.57q-44.59,23.46-53.23,71.59,25.78-18.59,51.56-21.49c-20,6.55-37.9,18.1-53.29,35.7-16,10.94-23,23.55-28.1,36.51l7.6,21.7c12.21-7.49,25.14-11,38.27-13.46,1.31,23,5.34,44.31,33.45,51.1,9.53-6.92,21.49-10.6,33.79-13.81,15.62,20.08,36.21,34.59,59.65,45.92-25.92-5.23-47.87-15.26-62.75-33.84-18.89,3.86-36.29,14.33-51,36.6q-.51,6-1,12.08c-3.24-10-15.48-12.88-27.59-15.88l22.42-.34c5.2-8,11.11-15.61,20-21.76-21.57-8.71-33.72-22.92-35.52-43.15-13.58-.83-25.27,7.13-36.55,16.91-1.32-12.07-3.37-23-10.25-26.55-18.23,16.35-17.15,33.9-14.69,51.53,11.07,3.11,22.26,5.78,34.25,5.41-1-13.63,5.29-24.35,10.35-35.57-3.83,19.69-4.34,39.37,1,59-12.06-17.9-28.46-21.32-45.67-22q-1.9,4.64-3.58,9.25c28.89,6.27,42.63,19.93,38.22,42.45-3-19.61-15.11-32.51-40.56-35.67-9.59,29.45-11.47,58.53,1.9,86.86C84.73,483,93.26,471.86,104.33,473c13.14,1.3,21.27,15.65,31.9,23.48-11.44-4.2-22.13-12.95-34.31-12.6-8.74.25-15.57,7.5-23,12.48l.37.66q2,21.45,4,42.89c14.74,54.24,61.64,97.73,122,136.74,36.38,8.23,71.14,12.3,94.51-12.73,11.86,15.16,27.44,26,56.31,21.45,47.07-13.38,85-38,116-71.05a62.35,62.35,0,0,0,0-24.13c25.18-35,46.35-73.75,55-124,1.77-20.46,3.62-40.89,1.34-62.93a175.56,175.56,0,0,1-35.26-25.37c10.85,4.64,21.75,9.13,33.25,11.33ZM441,311.89c11.51,9.36,19.07,22.05,24.83,36.25.19-7.75-1.15-15.57-6.55-21.75,16.57,5.43,33.63,4.22,50.68,3.1-25.2-3.45-48.81-8.62-69-17.6Zm-109.3-11.05c34.49-8.29,64.37,12.27,92.4,47.3-3.39-15.17-9.8-23.95-24.13-33.84,17.5-17.1,38.34-29,71-22.09-29.27-24.6-56.16-5.58-83.1,12.77,7.72-28.3,17.81-54.41,68.62-42.81-11.75-9.58-25.37-14.7-43.1-10-15.71-19.16-32.11-37.73-36.55-66.28-6.47,10.64-6.3,23.19-3.11,36.59-32.1-7.48-29.63-27.15-12.07-52.13-22.91,7.2-26.64,21.67-26,40.22a29.54,29.54,0,0,0-23.27,6.39c36.1,1.7,68.85,8.58,93.44,35.21-1.43,14.71-13.25,26.85-27.58,38.33-18.27-1.36-32.11,5-46.55,10.36ZM459.31,491.42c16.26,1.7,33.39-7.22,51-22.09,5.94.7,8.76-.33,14-2.85-3.58-2-6.75-3.54-9.52-3.37-5.76-11.29-16.76-16-29.65-18.3,8.83,5.53,17.53,11.23,21.72,22.1-12.2,9.9-27.57,18.3-47.58,24.51Zm26.55,63.19c-5.07-5.87-9.67-11.85-11-18.65,8.28-6.8,17.36-8.75,26.55-10-16.26-3.11-34.54,1.84-54.48,13.47,5.59-1.7,11.08-2.79,16.21-1.73,5.53,7.14,12.17,13.47,22.76,16.92ZM423.1,645.76c-26.11,9.47-37.93,5.11-44.13,3.1,2.65-11.65,17.13-30,31.72-41.77-27.39,16.13-50.56,34.49-58.62,60.76,24.73,1.72,47.2-7.73,71-22.09Zm-42.41-40.4c-1.57-7.43-3.57-14.57-10.69-18.3,8.5-9.91,24.51-12.83,39.65-16.57-3.65,7.71-1.91,15.42,0,23.13,4.24-13.13,10-24.88,26.21-26.93,19.47,17.11,33.52,18.69,39.65-2.42-12.76,17.51-28.85,1.85-44.48-9.32A18,18,0,0,0,439,543.56c-7.15,6.22-18.36,8.05-31,8.29,14.93-16.8,33-31,53.45-43.16-15.57-19.94-32.6-37.38-51.38-51.79-7.82,7.08-16.2,13.53-27.24,16.92-5.26-4.62-11.4-7-17.59-9.33,3.91,4.64,7.74,9.38,9.31,17.27,1,14.32-2.93,27.4-5.86,40.74,6.13-11.91,12.86-23.6,15.17-36.95,8.62-7.49,17.24-13.91,25.86-15.88,15.1,10.51,28.13,23.68,40,38.33-16.71,9.78-31.79,21.86-46.2,34.87-4.91-4.9-8.89-10.41-10.35-17.61,12.7-6.78,8-21.28-2.76-27.28,5.06,10.52-2.46,22.9-10,30.39a44.69,44.69,0,0,1,15.18,22.09c-22.75,1.87-41.12,6.16-59.66,10.36,22.81-1.09,45.36-1.21,67.24,1.38-22.59,6-43,14-59.65,25.55,16.16,1.83,27.08,9.32,37.24,17.61ZM346.21,493.15c2.34-18.54,6.35-36.38,22.07-49.37,15.69,1.56,31.31,1.22,46.55-8.29,15,2.51,27.26,12.34,38.61,24.51,4.64-17.19,11-32.87,23.45-43.15,10.66,9,28.14,13.34,46.21,17.26-17.71-7.07-34.59-16.29-50-29.35-11,10.13-20.73,21.41-26.21,36.6a67.68,67.68,0,0,0-29.65-17.95c-12.83,7.34-26.6,11.31-41.72,10.35,3.39-8.69,3.74-17.77,3.45-26.93-3,10.52-7.42,20.79-15.52,30.39-17,13.58-18.69,34-17.24,55.93ZM320.35,380.59c18.25-2.19,35.24-9.11,55.86-2.41a41.73,41.73,0,0,1,18.5,16.42c22-2.76,40.51,7.58,56.67,21.56a65.88,65.88,0,0,0-19.66-22.1c11.15-9.35,20-19.42,23.79-31.07-7.15,11.45-19.05,18.47-33.1,23.47-7.84-2-15.71-3.4-23.79-.34-10.89-25.18-24.4-47-41.72-63.88,7.18,15.2,12.24,30.39,12.07,45.58-18.36-3.42-39.54,6.64-48.62,12.77ZM126.91,520.77c3.54,5,8.88,8.73,15.86,11.39,11.75,20.25,20.32,41.56,23.79,64.57a45.48,45.48,0,0,1-1.38,23.13c16.49-17.17,32-35.32,57.24-43.5-11.49-3-19.65-8.54-23.79-17.27a64.61,64.61,0,0,1-23.79,38.68A253,253,0,0,0,149,534.24c2.45-6.54,7-12,15.17-15.54,7.6,4.72,17.38,5.42,26.55,7.25-11.43-7.45-21.45-15.21-27.59-23.82-11.26,11.85-23.1,19.68-36.2,18.64Zm-25.52,38.67a52.31,52.31,0,0,0,27.24,8.63,21.69,21.69,0,0,0,9,11.74c-4.83,9.94-4.95,19.08-5.52,28.31,3-10.84,7.81-21,15.86-30-9.53-3.59-15.52-10.32-19.31-19-9.36,2-18.33,1.38-27.24.35ZM229.32,213.83c2.55,6.91,6,13.36,16.2,16.57q-2.58,6.39-5.17,12.78c14.9-1.55,28.43,2.36,41,10-6.87-9.49-15.06-17.78-27.93-21.75q5-8.12,10-16.23c-12.42,2.67-24,2.86-34.13-1.38ZM149,235.24q35.51-35.4,61.37,5.18c-.28-10.37-1-20.86,6.21-29.35-3.75,2.34-7.53,4.66-9.66,8.63-22.35-18.61-40.21-2.1-57.92,15.54ZM139,278.4C147.29,287,155,296.34,161,307.74c16.82-1.57,33.64-3.22,50.69.35a29.77,29.77,0,0,1,1,19c-3.55,4.14-8.75,6-14.14,7.59,6.23-.3,12.27.3,17.58,4.15,3.95,2.34,4.92,6.17,5.18,10.35.92-5.35,3.56-9.84,10-12.42,13.6-.85,26.55-4.94,39.65-8.29-15.68-.06-31.31.43-47.24-2.07q-6-11.91-4.14-22.79a267.94,267.94,0,0,1,14.48-45.23c-8.81,11.68-14.86,24.35-17.24,38.32-17.71,5-33.77,5.5-46.89-2.41,4.58-9,13.12-14.67,22.76-19.34-12-1.19-23.57,1.79-33.1,11.05-6.07-5-13.45-6.11-20.69-7.59Zm43.44,359.42,23.1,1.72C223.11,647.77,239,658,251,672.69c.58-19.45-14.36-30.27-38.62-35.91,8.54-5.77,13.82-13.3,19.31-20.72-12.07,7.83-26.63,16.26-49.31,21.76Zm89-53.17c-1.26-6.68.9-15.12-3.79-20-11.18-11.72-31.92-13-40.69-26.59-6.41-10,.46-23.7.69-35.56,15.34,0,24.9-4.74,29.66-13.46-8.27,5.21-17.7,7.68-29.66,4.14-16.28-3.08-27.06-11.28-36.89-20.37,5.33,11.27,12.57,21.43,29,26.24-.34,14.85-8.79,31.88-1,44.54,8.8,14.36,30.5,14.85,43.79,25.2,4.8,3.74,6,10.59,9,15.89Zm-3.1,67.67c-12.13-17.55-19.37-36-15.86-56.28a23.19,23.19,0,0,1-8.62-10.7c-14,12.09-33.67,20.14-54.14,27.62,17.48-2.74,35-5.71,52.42-15.89Q240,628.15,268.28,652.32Z" transform="translate(-58.97 -130.55)"/></svg>