<?xml version="1.0" encoding="utf-8"?>
<!-- Generator: Adobe Illustrator 22.0.0, SVG Export Plug-In . SVG Version: 6.00 Build 0)  -->
<svg version="1.0" id="Layer_1" xmlns="http://www.w3.org/2000/svg" xmlns:xlink="http://www.w3.org/1999/xlink" x="0px" y="0px"
	 viewBox="0 0 1280 1024" style="enable-background:new 0 0 1280 1024;" xml:space="preserve">
<style type="text/css">
	.st0{fill:#FFFFFF;}
</style>
<path d="M640.8,247.3c15.3-10.1,33-13.6,53.8-9c13.1,5.4,27,8.5,37.2,22.7c29.4,5,46,28.5,64.8,49c25.9,26.1,30,46.5,31,66.2
	c16.1,19.2,37.7,30.5,43.6,55.5c3,12.5-3.2,23.1-5,30.7c4.6,3.7,8.3,10.3,11,20c6.1,29.8,3.7,56.2,1.4,82.7
	c-8.9,51.7-30.6,91.5-56.5,127.5c1.6,8.2,1.6,16.6,0,24.8c-31.9,34-70.9,59.3-119.3,73.1c-29.7,4.7-45.7-6.5-57.9-22.1
	c-24,25.8-59.8,21.6-97.2,13.1c-62-40.1-110.3-84.8-125.4-140.6c-1.4-14.7-2.8-29.4-4.1-44.1c-21.7-37.5-15.8-76.4,0.7-115.8
	c-3.1-21.5-6.7-43.1,20-62.7c6.1-17.2,12-34.5,33.1-48.9c2.8-40.5,21.6-69.9,56.5-88.2c18.2-26,41.5-44.5,71.7-53.1
	C617.6,227.7,629.7,236.6,640.8,247.3L640.8,247.3z M786,409.3c11.5,9.4,19.1,22,24.8,36.3c0.2-7.8-1.2-15.6-6.5-21.8
	c16.6,5.4,33.6,4.2,50.7,3.1C829.8,423.5,806.2,418.3,786,409.3L786,409.3z M676.7,398.3c34.5-8.3,64.4,12.3,92.4,47.3
	c-3.4-15.2-9.8-24-24.1-33.8c17.5-17.1,38.3-29,71-22.1c-29.3-24.6-56.2-5.6-83.1,12.8c7.7-28.3,17.8-54.4,68.6-42.8
	c-11.8-9.6-25.4-14.7-43.1-10c-15.7-19.2-32.1-37.7-36.5-66.3c-6.5,10.6-6.3,23.2-3.1,36.6c-32.1-7.5-29.6-27.1-12.1-52.1
	c-22.9,7.2-26.6,21.7-26,40.2c-8.3-1.3-16.8,1-23.3,6.4c36.1,1.7,68.8,8.6,93.4,35.2c-1.4,14.7-13.3,26.9-27.6,38.3
	C705,386.6,691.2,393,676.7,398.3L676.7,398.3z M804.3,588.9c16.3,1.7,33.4-7.2,51-22.1c5.9,0.7,8.8-0.3,14-2.9
	c-3.6-2-6.8-3.5-9.5-3.4c-5.8-11.3-16.8-16-29.6-18.3c8.8,5.5,17.5,11.2,21.7,22.1C839.7,574.3,824.3,582.7,804.3,588.9L804.3,588.9
	z M830.9,652.1c-5.1-5.9-9.7-11.8-11-18.7c8.3-6.8,17.4-8.8,26.5-10c-16.3-3.1-34.5,1.8-54.5,13.5c5.6-1.7,11.1-2.8,16.2-1.7
	C813.7,642.3,820.3,648.6,830.9,652.1L830.9,652.1z M768.1,743.2c-26.1,9.5-37.9,5.1-44.1,3.1c2.7-11.7,17.1-30,31.7-41.8
	c-27.4,16.1-50.6,34.5-58.6,60.8C721.8,767,744.3,757.6,768.1,743.2L768.1,743.2z M725.7,702.8c-1.6-7.4-3.6-14.6-10.7-18.3
	c8.5-9.9,24.5-12.8,39.6-16.6c-3.6,7.7-1.9,15.4,0,23.1c4.2-13.1,10-24.9,26.2-26.9c19.5,17.1,33.5,18.7,39.6-2.4
	c-12.8,17.5-28.9,1.8-44.5-9.3c4.1-2.6,6.9-6.7,8-11.4c-7.2,6.2-18.4,8-31,8.3c14.9-16.8,33-31,53.4-43.2
	c-15.6-19.9-32.6-37.4-51.4-51.8c-7.8,7.1-16.2,13.5-27.2,16.9c-5.3-4.6-11.4-7-17.6-9.3c3.9,4.6,7.7,9.4,9.3,17.3
	c1,14.3-2.9,27.4-5.9,40.7c6.1-11.9,12.9-23.6,15.2-37c8.6-7.5,17.2-13.9,25.9-15.9c15.1,10.5,28.1,23.7,40,38.3
	c-16.7,9.8-31.8,21.9-46.2,34.9c-4.9-4.9-8.9-10.4-10.4-17.6c12.7-6.8,8-21.3-2.8-27.3c5.1,10.5-2.5,22.9-10,30.4
	c7.2,5.6,12.5,13.3,15.2,22.1c-22.8,1.9-41.1,6.2-59.7,10.4c22.8-1.1,45.4-1.2,67.2,1.4c-22.6,6-43,14-59.6,25.5
	C704.7,687,715.6,694.5,725.7,702.8L725.7,702.8z M691.2,590.6c2.3-18.5,6.3-36.4,22.1-49.4c15.7,1.6,31.3,1.2,46.5-8.3
	c15,2.5,27.3,12.3,38.6,24.5c4.6-17.2,11-32.9,23.5-43.2c10.7,9,28.1,13.3,46.2,17.3c-17.7-7.1-34.6-16.3-50-29.3
	c-11,10.1-20.7,21.4-26.2,36.6c-8.2-8.5-18.4-14.6-29.7-18c-12.8,7.3-26.6,11.3-41.7,10.4c3.4-8.7,3.7-17.8,3.5-26.9
	c-3,10.5-7.4,20.8-15.5,30.4C691.5,548.3,689.8,568.7,691.2,590.6L691.2,590.6z M665.4,478c18.3-2.2,35.2-9.1,55.9-2.4
	c7.7,3.5,14.1,9.2,18.5,16.4c22-2.8,40.5,7.6,56.7,21.6c-4.8-8.8-11.5-16.3-19.7-22.1c11.2-9.4,20-19.4,23.8-31.1
	c-7.2,11.5-19.1,18.5-33.1,23.5c-7.8-2-15.7-3.4-23.8-0.3c-10.9-25.2-24.4-47-41.7-63.9c7.2,15.2,12.2,30.4,12.1,45.6
	C695.6,461.8,674.5,471.9,665.4,478z M471.9,618.2c3.5,5,8.9,8.7,15.9,11.4c11.8,20.3,20.3,41.6,23.8,64.6
	c1.5,7.7,1.1,15.7-1.4,23.1c16.5-17.2,32-35.3,57.2-43.5c-11.5-3-19.7-8.5-23.8-17.3c-3,15.3-11.4,29.1-23.8,38.7
	c-5.7-22.3-14.4-43.6-25.8-63.5c2.4-6.5,7-12,15.2-15.5c7.6,4.7,17.4,5.4,26.5,7.3c-11.4-7.5-21.5-15.2-27.6-23.8
	C496.9,611.4,485.1,619.3,471.9,618.2L471.9,618.2z M446.4,656.9c8.1,5.3,17.5,8.3,27.2,8.6c1.5,4.8,4.7,9,9,11.7
	c-4.8,9.9-4.9,19.1-5.5,28.3c3-10.8,7.8-21,15.9-30c-9.5-3.6-15.5-10.3-19.3-19C464.3,658.6,455.4,658,446.4,656.9L446.4,656.9z
	 M574.3,311.3c2.6,6.9,6,13.4,16.2,16.6c-1.7,4.3-3.4,8.5-5.2,12.8c14.9-1.6,28.4,2.4,41,10c-6.9-9.5-15.1-17.8-27.9-21.8
	c3.3-5.4,6.7-10.8,10-16.2C596,315.3,584.5,315.5,574.3,311.3L574.3,311.3z M494,332.7c23.7-23.6,44.1-21.9,61.4,5.2
	c-0.3-10.4-1-20.9,6.2-29.4c-3.8,2.3-7.5,4.7-9.7,8.6C529.6,298.5,511.7,315,494,332.7L494,332.7z M484,375.8
	c8.3,8.6,16,17.9,22,29.3c16.8-1.6,33.6-3.2,50.7,0.3c2.4,6.1,2.8,12.7,1,19c-3.5,4.1-8.8,6-14.1,7.6c6.2-0.3,12.3,0.3,17.6,4.1
	c3.9,2.3,4.9,6.2,5.2,10.4c0.9-5.4,3.6-9.8,10-12.4c13.6-0.8,26.6-4.9,39.7-8.3c-15.7-0.1-31.3,0.4-47.2-2.1
	c-4-7.9-5.4-15.5-4.1-22.8c3.5-15.5,8.3-30.6,14.5-45.2c-8.8,11.7-14.9,24.3-17.2,38.3c-17.7,5-33.8,5.5-46.9-2.4
	c4.6-9,13.1-14.7,22.8-19.3c-12-1.2-23.6,1.8-33.1,11c-6.1-5-13.4-6.1-20.7-7.6L484,375.8z M527.5,735.3l23.1,1.7
	c17.6,8.2,33.5,18.5,45.5,33.2c0.6-19.5-14.4-30.3-38.6-35.9c8.5-5.8,13.8-13.3,19.3-20.7C564.7,721.3,550.1,729.8,527.5,735.3
	L527.5,735.3z M616.5,682.1c-1.3-6.7,0.9-15.1-3.8-20c-11.2-11.7-31.9-13-40.7-26.6c-6.4-10,0.5-23.7,0.7-35.6
	c15.3,0,24.9-4.7,29.7-13.5c-8.3,5.2-17.7,7.7-29.7,4.1c-16.3-3.1-27.1-11.3-36.9-20.4c5.3,11.3,12.6,21.4,29,26.2
	c-0.3,14.9-8.8,31.9-1,44.5c8.8,14.4,30.5,14.8,43.8,25.2c4.8,3.7,6,10.6,9,15.9L616.5,682.1z M613.4,749.8
	c-12.1-17.5-19.4-36-15.9-56.3c-3.9-2.6-6.9-6.3-8.6-10.7c-14,12.1-33.7,20.1-54.1,27.6c17.5-2.7,35-5.7,52.4-15.9
	C585.7,715.2,594.5,733.7,613.4,749.8L613.4,749.8z"/>
<g id="XMLID_1_">
	<g>
		<path class="st0" d="M873.5,500.7c2.3,22,0.4,42.5-1.3,62.9c-8.7,50.3-29.8,89-55,124c1.6,8,1.6,16.2,0,24.1
			c-31,33-68.9,57.7-116,71c-28.9,4.5-44.5-6.3-56.3-21.5c-23.4,25-58.1,21-94.5,12.7c-60.4-39-107.3-82.5-122-136.7
			c-1.3-14.3-2.7-28.6-4-42.9l-0.4-0.7c7.4-5,14.3-12.2,23-12.5c12.2-0.4,22.9,8.4,34.3,12.6c-10.6-7.8-18.8-22.2-31.9-23.5
			c-11.1-1.1-19.6,10-29.1,16c-13.4-28.3-11.5-57.4-1.9-86.9c25.5,3.2,37.6,16.1,40.6,35.7c4.4-22.5-9.3-36.2-38.2-42.5
			c1.1-3.1,2.3-6.2,3.6-9.3c17.2,0.7,33.6,4.1,45.7,22c-5.3-19.6-4.8-39.3-1-59c-5.1,11.2-11.4,21.9-10.4,35.6
			c-12,0.4-23.2-2.3-34.3-5.4c-2.5-17.6-3.5-35.2,14.7-51.5c6.9,3.6,8.9,14.5,10.3,26.6c11.3-9.8,23-17.7,36.6-16.9
			c1.8,20.2,13.9,34.4,35.5,43.1c-8.9,6.1-14.8,13.8-20,21.8l-22.4,0.3c12.1,3,24.3,5.9,27.6,15.9c0.3-4,0.7-8.1,1-12.1
			c14.7-22.3,32.1-32.7,51-36.6c14.9,18.6,36.8,28.6,62.8,33.8c-23.4-11.3-44-25.8-59.6-45.9c-12.3,3.2-24.3,6.9-33.8,13.8
			c-28.1-6.8-32.1-28.1-33.4-51.1c-13.1,2.5-26.1,6-38.3,13.5l-7.6-21.7c5.1-13,12.1-25.6,28.1-36.5c15.4-17.6,33.3-29.1,53.3-35.7
			c-17.2,1.9-34.4,9.1-51.6,21.5c5.8-32.1,23.5-56,53.2-71.6c14.1-11,23.1-4.8,28,15.6c4.8-30,55.1-26.1,39.6-6.2
			c12.7-5.5,13.3-28-23.8-30c1.5-11,16.6-15.4,33.8-19c-22.4-1.2-38.6,5-49,19l-11.2-0.2c14.5-14.6,32.5-25.1,52.3-30.7
			c13.5-0.2,23.8,5.2,32.8,12.7c7.7,49.9,8.6,98.8,5.8,147c-8.3-8.8-16.6-19-27.6-17.6c-16,2-19.9,12.2-27.6,19.3
			c8.8-4.1,16.2-6.9,27.2-5.9c9.8,0.9,17.7,8.4,25.9,15.2c3.3,21.9,3.2,43.9,1.4,65.9c-4.6,2.6-9.9,2.5-15.2,2.1
			c6.8,2.9,12.9,7,18.1,12.1c-0.1,13.5-0.2,26.9-0.3,40.4c-2.8,14.2-12.2,20.3-22.4,25.2c8.7-0.8,17.6-1.9,24.5,2.4
			c-0.3,5.8-0.7,11.5-1,17.3c-23-7-42.2,1.7-61.4-12.8c0.6-7.8-3.1-42.5-31.4-57c-25.8,2.4-33.9,33.8-36.9,42.1
			c-13.3-19.1-30-24.8-45.5-34.9c16,14.8,32.8,26.3,46.2,50.4c9.3-14.1,13.2-46,34.5-44.2c10.4,4.3,26.1,29.3,25.9,52.5
			c19.1,14.3,46,12.4,69,18.6c-0.3,16.8-0.7,33.6-1,50.4c-17.1,1.3-31.8-7.9-45.2-23.1c9.3,18.7,23.5,31.1,44.8,34.2
			c-2.4,24.5-5.4,48.2-27.2,46.6c7.7,2.9,15.5,5,23.8,3.5c-8.2,16.5-7.6,32.9-5.2,49.4c1.1-12.3,2.8-24.2,11.7-31.4
			c7,8.5,12.3,19.3,16.9,31.4c-1.8-13-6-25.5-12.4-36.9c14.6,11.2,29.7,16.4,44.8,21.1c-18.4-10.8-34.6-26.1-47.9-46.6
			c10.5,0.8,20,4.9,28.6,11.7c-5.3-12.4-13.5-23.4-23.8-32.1c3.8-13.6,7.6-27.2,11.4-40.7c13.6,0.1,26.6,4.9,39.3,11
			c-12.4-14.2-28.6-27.4-47.9-39.7c-1.2-15.8,0-31.2,7.6-45.6l-9,4.8c5-9.2,9-18.9,11.7-29c-3.3,3.2-7.5,5.3-12.1,5.9
			c-3.3-20.1-5.4-40.4-1.7-61.8c15.9-3.2,29.7-8.5,42.8-14.5c-14.4,2.5-28.9,4.3-43.5,5.2c-3-21.5-3.5-43.3-1.4-64.9
			c1.7-5.1,4.2-9.9,7.6-14.2c-2.7-0.6-5.3-0.8-7.9,1.4c-0.1-5.6-0.2-11.3-0.4-16.9c20-4.8,39.2-2.4,56.9,10.7
			c-0.8-5.3-2.3-10.1-5.9-13.1c2-8.6,1.7-19.2,1.4-29.7c-2,10-4.3,19.5-11.4,22.5c-12.4-2.8-24.8-2.9-37.2-2.1
			c-5.3-34.8-4.6-69.7-1.9-104.5c12.7-5.9,27.1-7.4,43.4-3.7c12.8,5.2,26.3,8.3,36.2,22.1c28.6,4.8,44.8,27.7,63,47.6
			c25.2,25.4,29.2,45.3,30.2,64.4c15.7,18.7,36.7,29.7,42.4,53.9c3,12.1-3.1,22.5-4.9,29.8c4.5,3.6,8.1,10.1,10.7,19.4
			c0.2,1.2,0.5,2.3,0.7,3.5l0.1,0.1c-11.5-2.2-22.4-6.7-33.3-11.3C848.9,485.2,860.7,493.8,873.5,500.7z"/>
	</g>
	<g>
	</g>
</g>
<path d="M640.8,247.3c15.3-10.1,33-13.6,53.8-9c13.1,5.4,27,8.5,37.2,22.7c29.4,5,46,28.5,64.8,49c25.9,26.1,30,46.5,31,66.2
	c16.1,19.2,37.7,30.5,43.6,55.5c3,12.5-3.2,23.1-5,30.7c4.6,3.7,8.3,10.3,11,20c6.1,29.8,3.7,56.2,1.4,82.7
	c-8.9,51.7-30.6,91.5-56.5,127.5c1.6,8.2,1.6,16.6,0,24.8c-31.9,34-70.9,59.3-119.3,73.1c-29.7,4.7-45.7-6.5-57.9-22.1
	c-24,25.8-59.8,21.6-97.2,13.1c-62-40.1-110.3-84.8-125.4-140.6c-1.4-14.7-2.8-29.4-4.1-44.1c-21.7-37.5-15.8-76.4,0.7-115.8
	c-3.1-21.5-6.7-43.1,20-62.7c6.1-17.2,12-34.5,33.1-48.9c2.8-40.5,21.6-69.9,56.5-88.2c18.2-26,41.5-44.5,71.7-53.1
	C617.6,227.7,629.7,236.6,640.8,247.3L640.8,247.3z M871.4,486.6c-0.2-1.1-0.4-2.3-0.7-3.5c-2.7-9.4-6.2-15.9-10.7-19.4
	c1.8-7.4,7.8-17.7,4.9-29.8c-5.7-24.3-26.7-35.3-42.4-54c-1-19.1-5-39-30.2-64.3c-18.3-19.9-34.4-42.8-63-47.6
	c-9.9-13.8-23.4-16.9-36.2-22.1c-16.3-3.6-30.7-2.1-43.4,3.7c-2.7,34.8-3.4,69.7,1.9,104.5c12.4-0.9,24.8-0.7,37.2,2.1
	c7.1-3,9.4-12.5,11.4-22.4c0.3,10.5,0.7,21.1-1.4,29.7c3.6,3,5.1,7.8,5.9,13.1c-17.8-13.1-36.9-15.5-56.9-10.7
	c0.1,5.6,0.2,11.3,0.4,16.9c2.6-2.2,5.3-2,7.9-1.4c-3.4,4.2-5.9,9-7.6,14.2c-2.1,21.6-1.6,43.4,1.4,64.9c14.6-0.9,29.1-2.6,43.5-5.2
	c-13.1,6-26.9,11.3-42.8,14.5c-3.6,21.4-1.5,41.7,1.7,61.8c4.6-0.6,8.8-2.7,12.1-5.9c-2.7,10.1-6.7,19.8-11.7,29l9-4.8
	c-7.6,14.4-8.8,29.8-7.6,45.6c19.3,12.3,35.5,25.5,47.9,39.7c-12.7-6.1-25.7-10.9-39.3-11c-3.8,13.6-7.6,27.2-11.4,40.7
	c10.3,8.7,18.4,19.7,23.8,32.1c-8.7-6.8-18.1-10.9-28.6-11.7c13.4,20.5,29.5,35.8,47.9,46.6c-15.1-4.7-30.2-9.9-44.8-21.1
	c6.4,11.4,10.6,24,12.4,36.9c-4.5-12.1-9.9-22.9-16.9-31.4c-8.9,7.2-10.6,19.1-11.7,31.4c-2.4-16.5-3-32.9,5.2-49.4
	c-8.3,1.6-16-0.6-23.8-3.5c21.9,1.5,24.9-22.1,27.2-46.6c-21.3-3.1-35.5-15.5-44.8-34.2c13.4,15.2,28.1,24.5,45.2,23.1
	c0.3-16.8,0.7-33.6,1-50.4c-23-6.2-49.9-4.3-69-18.6c0.2-23.2-15.5-48.2-25.9-52.5c-21.3-1.8-25.2,30.1-34.5,44.2
	c-13.4-24.1-30.3-35.6-46.2-50.4c15.6,10.1,32.2,15.8,45.5,34.9c3-8.3,11.1-39.7,36.9-42.1c28.3,14.5,32,49.2,31.4,57
	c19.2,14.4,38.4,5.8,61.4,12.8c0.3-5.8,0.7-11.5,1-17.3c-6.9-4.4-15.7-3.2-24.5-2.4c10.2-4.9,19.6-11,22.4-25.2
	c0.1-13.5,0.2-26.9,0.3-40.4c-5.2-5.2-11.4-9.3-18.1-12.1c5.3,0.4,10.5,0.5,15.2-2.1c1.8-22,1.9-44-1.4-66
	c-8.2-6.8-16.1-14.3-25.9-15.2c-11-1-18.4,1.8-27.2,5.9c7.7-7.2,11.6-17.3,27.6-19.3c11-1.4,19.3,8.8,27.6,17.6
	c2.9-48.2,1.9-97.1-5.8-147c-9-7.5-19.3-12.9-32.9-12.7c-19.8,5.6-37.8,16.1-52.2,30.7l11.2,0.2c10.4-14,26.6-20.2,49-19
	c-17.1,3.6-32.3,8-33.8,19c37.1,2,36.5,24.5,23.8,30c15.4-19.9-34.9-23.8-39.6,6.2c-4.9-20.4-13.9-26.5-28-15.6
	c-29.7,15.6-47.5,39.5-53.2,71.6c17.2-12.4,34.4-19.6,51.6-21.5c-20,6.6-37.9,18.1-53.3,35.7c-16,10.9-23,23.5-28.1,36.5l7.6,21.7
	c12.2-7.5,25.1-11,38.3-13.5c1.3,23,5.3,44.3,33.5,51.1c9.5-6.9,21.5-10.6,33.8-13.8c15.6,20.1,36.2,34.6,59.7,45.9
	c-25.9-5.2-47.9-15.3-62.8-33.8c-18.9,3.9-36.3,14.3-51,36.6c-0.3,4-0.7,8-1,12.1c-3.2-10-15.5-12.9-27.6-15.9l22.4-0.3
	c5.2-8,11.1-15.6,20-21.8c-21.6-8.7-33.7-22.9-35.5-43.2c-13.6-0.8-25.3,7.1-36.5,16.9c-1.3-12.1-3.4-23-10.3-26.5
	c-18.2,16.3-17.2,33.9-14.7,51.5c11.1,3.1,22.3,5.8,34.3,5.4c-1-13.6,5.3-24.4,10.3-35.6c-3.8,19.7-4.3,39.4,1,59
	c-12.1-17.9-28.5-21.3-45.7-22c-1.3,3.1-2.5,6.2-3.6,9.3c28.9,6.3,42.6,19.9,38.2,42.5c-3-19.6-15.1-32.5-40.6-35.7
	c-9.6,29.5-11.5,58.5,1.9,86.9c9.5-6,18-17.2,29.1-16c13.1,1.3,21.3,15.6,31.9,23.5c-11.4-4.2-22.1-13-34.3-12.6
	c-8.7,0.3-15.6,7.5-23,12.5l0.4,0.7c1.3,14.3,2.7,28.6,4,42.9c14.7,54.2,61.6,97.7,122,136.7c36.4,8.2,71.1,12.3,94.5-12.7
	c11.9,15.2,27.4,26,56.3,21.5c47.1-13.4,85-38,116-71c1.6-8,1.6-16.2,0-24.1c25.2-35,46.3-73.8,55-124c1.8-20.5,3.6-40.9,1.3-62.9
	c-12.8-7-24.6-15.5-35.3-25.4C849.1,480,860,484.5,871.4,486.6L871.4,486.6z M786,409.3c11.5,9.4,19.1,22,24.8,36.3
	c0.2-7.8-1.2-15.6-6.5-21.8c16.6,5.4,33.6,4.2,50.7,3.1C829.8,423.5,806.2,418.3,786,409.3L786,409.3z M676.7,398.3
	c34.5-8.3,64.4,12.3,92.4,47.3c-3.4-15.2-9.8-24-24.1-33.8c17.5-17.1,38.3-29,71-22.1c-29.3-24.6-56.2-5.6-83.1,12.8
	c7.7-28.3,17.8-54.4,68.6-42.8c-11.8-9.6-25.4-14.7-43.1-10c-15.7-19.2-32.1-37.7-36.5-66.3c-6.5,10.6-6.3,23.2-3.1,36.6
	c-32.1-7.5-29.6-27.1-12.1-52.1c-22.9,7.2-26.6,21.7-26,40.2c-8.3-1.3-16.8,1-23.3,6.4c36.1,1.7,68.8,8.6,93.4,35.2
	c-1.4,14.7-13.3,26.9-27.6,38.3C705,386.6,691.2,393,676.7,398.3L676.7,398.3z M804.3,588.9c16.3,1.7,33.4-7.2,51-22.1
	c5.9,0.7,8.8-0.3,14-2.9c-3.6-2-6.8-3.5-9.5-3.4c-5.8-11.3-16.8-16-29.6-18.3c8.8,5.5,17.5,11.2,21.7,22.1
	C839.7,574.3,824.3,582.7,804.3,588.9L804.3,588.9z M830.9,652.1c-5.1-5.9-9.7-11.8-11-18.7c8.3-6.8,17.4-8.8,26.5-10
	c-16.3-3.1-34.5,1.8-54.5,13.5c5.6-1.7,11.1-2.8,16.2-1.7C813.7,642.3,820.3,648.6,830.9,652.1L830.9,652.1z M768.1,743.2
	c-26.1,9.5-37.9,5.1-44.1,3.1c2.7-11.7,17.1-30,31.7-41.8c-27.4,16.1-50.6,34.5-58.6,60.8C721.8,767,744.3,757.6,768.1,743.2
	L768.1,743.2z M725.7,702.8c-1.6-7.4-3.6-14.6-10.7-18.3c8.5-9.9,24.5-12.8,39.6-16.6c-3.6,7.7-1.9,15.4,0,23.1
	c4.2-13.1,10-24.9,26.2-26.9c19.5,17.1,33.5,18.7,39.6-2.4c-12.8,17.5-28.9,1.8-44.5-9.3c4.1-2.6,6.9-6.7,8-11.4
	c-7.2,6.2-18.4,8-31,8.3c14.9-16.8,33-31,53.4-43.2c-15.6-19.9-32.6-37.4-51.4-51.8c-7.8,7.1-16.2,13.5-27.2,16.9
	c-5.3-4.6-11.4-7-17.6-9.3c3.9,4.6,7.7,9.4,9.3,17.3c1,14.3-2.9,27.4-5.9,40.7c6.1-11.9,12.9-23.6,15.2-37
	c8.6-7.5,17.2-13.9,25.9-15.9c15.1,10.5,28.1,23.7,40,38.3c-16.7,9.8-31.8,21.9-46.2,34.9c-4.9-4.9-8.9-10.4-10.4-17.6
	c12.7-6.8,8-21.3-2.8-27.3c5.1,10.5-2.5,22.9-10,30.4c7.2,5.6,12.5,13.3,15.2,22.1c-22.8,1.9-41.1,6.2-59.7,10.4
	c22.8-1.1,45.4-1.2,67.2,1.4c-22.6,6-43,14-59.6,25.5C704.7,687,715.6,694.5,725.7,702.8L725.7,702.8z M691.2,590.6
	c2.3-18.5,6.3-36.4,22.1-49.4c15.7,1.6,31.3,1.2,46.5-8.3c15,2.5,27.3,12.3,38.6,24.5c4.6-17.2,11-32.9,23.5-43.2
	c10.7,9,28.1,13.3,46.2,17.3c-17.7-7.1-34.6-16.3-50-29.3c-11,10.1-20.7,21.4-26.2,36.6c-8.2-8.5-18.4-14.6-29.7-18
	c-12.8,7.3-26.6,11.3-41.7,10.4c3.4-8.7,3.7-17.8,3.5-26.9c-3,10.5-7.4,20.8-15.5,30.4C691.5,548.3,689.8,568.7,691.2,590.6
	L691.2,590.6z M665.4,478c18.3-2.2,35.2-9.1,55.9-2.4c7.7,3.5,14.1,9.2,18.5,16.4c22-2.8,40.5,7.6,56.7,21.6
	c-4.8-8.8-11.5-16.3-19.7-22.1c11.2-9.4,20-19.4,23.8-31.1c-7.2,11.5-19.1,18.5-33.1,23.5c-7.8-2-15.7-3.4-23.8-0.3
	c-10.9-25.2-24.4-47-41.7-63.9c7.2,15.2,12.2,30.4,12.1,45.6C695.6,461.8,674.5,471.9,665.4,478z M471.9,618.2
	c3.5,5,8.9,8.7,15.9,11.4c11.8,20.3,20.3,41.6,23.8,64.6c1.5,7.7,1.1,15.7-1.4,23.1c16.5-17.2,32-35.3,57.2-43.5
	c-11.5-3-19.7-8.5-23.8-17.3c-3,15.3-11.4,29.1-23.8,38.7c-5.7-22.3-14.4-43.6-25.8-63.5c2.4-6.5,7-12,15.2-15.5
	c7.6,4.7,17.4,5.4,26.5,7.3c-11.4-7.5-21.5-15.2-27.6-23.8C496.9,611.4,485.1,619.3,471.9,618.2L471.9,618.2z M446.4,656.9
	c8.1,5.3,17.5,8.3,27.2,8.6c1.5,4.8,4.7,9,9,11.7c-4.8,9.9-4.9,19.1-5.5,28.3c3-10.8,7.8-21,15.9-30c-9.5-3.6-15.5-10.3-19.3-19
	C464.3,658.6,455.4,658,446.4,656.9L446.4,656.9z M574.3,311.3c2.6,6.9,6,13.4,16.2,16.6c-1.7,4.3-3.4,8.5-5.2,12.8
	c14.9-1.6,28.4,2.4,41,10c-6.9-9.5-15.1-17.8-27.9-21.8c3.3-5.4,6.7-10.8,10-16.2C596,315.3,584.5,315.5,574.3,311.3L574.3,311.3z
	 M494,332.7c23.7-23.6,44.1-21.9,61.4,5.2c-0.3-10.4-1-20.9,6.2-29.4c-3.8,2.3-7.5,4.7-9.7,8.6C529.6,298.5,511.7,315,494,332.7
	L494,332.7z M484,375.8c8.3,8.6,16,17.9,22,29.3c16.8-1.6,33.6-3.2,50.7,0.3c2.4,6.1,2.8,12.7,1,19c-3.5,4.1-8.8,6-14.1,7.6
	c6.2-0.3,12.3,0.3,17.6,4.1c3.9,2.3,4.9,6.2,5.2,10.4c0.9-5.4,3.6-9.8,10-12.4c13.6-0.8,26.6-4.9,39.7-8.3
	c-15.7-0.1-31.3,0.4-47.2-2.1c-4-7.9-5.4-15.5-4.1-22.8c3.5-15.5,8.3-30.6,14.5-45.2c-8.8,11.7-14.9,24.3-17.2,38.3
	c-17.7,5-33.8,5.5-46.9-2.4c4.6-9,13.1-14.7,22.8-19.3c-12-1.2-23.6,1.8-33.1,11c-6.1-5-13.4-6.1-20.7-7.6L484,375.8z M527.5,735.3
	l23.1,1.7c17.6,8.2,33.5,18.5,45.5,33.2c0.6-19.5-14.4-30.3-38.6-35.9c8.5-5.8,13.8-13.3,19.3-20.7
	C564.7,721.3,550.1,729.8,527.5,735.3L527.5,735.3z M616.5,682.1c-1.3-6.7,0.9-15.1-3.8-20c-11.2-11.7-31.9-13-40.7-26.6
	c-6.4-10,0.5-23.7,0.7-35.6c15.3,0,24.9-4.7,29.7-13.5c-8.3,5.2-17.7,7.7-29.7,4.1c-16.3-3.1-27.1-11.3-36.9-20.4
	c5.3,11.3,12.6,21.4,29,26.2c-0.3,14.9-8.8,31.9-1,44.5c8.8,14.4,30.5,14.8,43.8,25.2c4.8,3.7,6,10.6,9,15.9L616.5,682.1z
	 M613.4,749.8c-12.1-17.5-19.4-36-15.9-56.3c-3.9-2.6-6.9-6.3-8.6-10.7c-14,12.1-33.7,20.1-54.1,27.6c17.5-2.7,35-5.7,52.4-15.9
	C585.7,715.2,594.5,733.7,613.4,749.8L613.4,749.8z"/>
</svg>
